<svg width="80" height="80" viewBox="0 0 80 80" xmlns="http://www.w3.org/2000/svg">
  <defs>
    <linearGradient id="yellowGreenGrad" x1="0%" y1="0%" x2="100%" y2="100%">
      <stop offset="0%" style="stop-color:#ca8a04;stop-opacity:1" />
      <stop offset="100%" style="stop-color:#16a34a;stop-opacity:1" />
    </linearGradient>
  </defs>
  <circle cx="40" cy="40" r="40" fill="url(#yellowGreenGrad)"/>
  <path d="M40 15C42 15 43.5 16.5 43.5 18.5C43.5 20.5 42 22 40 22C38 22 36.5 20.5 36.5 18.5C36.5 16.5 38 15 40 15M65 32V30L52.5 18H30C28.5 18 27.5 19 27.5 20.5V62C27.5 63.5 28.5 64.5 30 64.5H60C61.5 64.5 62.5 63.5 62.5 62V32M60 32H45V22H30V62H60V32Z" fill="white"/>
</svg>